# 3ds Max Wavefront OBJ Exporter v0.97b - (c)2007 guruware
# File Created: 11.09.2020 15:53:49

mtllib police_van.mtl

#
# object van_police
#

v  -20.7271 -8.0338 10.1461
v  -22.1492 -8.0338 10.1514
v  -22.1492 -2.7401 10.1514
v  -20.7271 -2.7401 10.1461
v  -22.1492 2.5536 10.1514
v  -20.7271 2.5536 10.1461
v  -22.1492 7.8473 10.1514
v  -20.7271 7.8473 10.1461
v  -23.5714 -8.0338 10.1566
v  -23.5714 -2.7401 10.1566
v  -23.5714 2.5536 10.1566
v  -23.5714 7.8473 10.1566
v  -20.7225 -8.0338 11.3986
v  -20.7213 -2.7401 11.7020
v  -22.1435 -2.7401 11.7072
v  -22.1446 -8.0338 11.4038
v  -20.7213 2.5536 11.7020
v  -22.1435 2.5536 11.7072
v  -20.7225 7.8473 11.3986
v  -22.1446 7.8473 11.4038
v  -23.5657 -2.7401 11.7124
v  -23.5668 -8.0338 11.4090
v  -23.5657 2.5536 11.7124
v  -23.5668 7.8473 11.4090
v  -20.7244 -2.7401 10.8798
v  -20.7244 -8.0338 10.8798
v  -20.7244 2.5536 10.8798
v  -20.7244 7.8473 10.8798
v  -22.1465 7.8473 10.8851
v  -23.5687 7.8473 10.8903
v  -23.5687 2.5536 10.8903
v  -23.5687 -2.7401 10.8903
v  -23.5687 -8.0338 10.8903
v  -22.1465 -8.0338 10.8851
v  11.5742 -8.0338 10.1461
v  10.1521 -8.0338 10.1514
v  10.1521 -2.7401 10.1514
v  11.5742 -2.7401 10.1461
v  10.1521 2.5536 10.1514
v  11.5742 2.5536 10.1461
v  10.1521 7.8473 10.1514
v  11.5742 7.8473 10.1461
v  8.7299 -8.0338 10.1566
v  8.7299 -2.7401 10.1566
v  8.7299 2.5536 10.1566
v  8.7299 7.8473 10.1566
v  11.5788 -8.0338 11.3986
v  11.5800 -2.7401 11.7020
v  10.1578 -2.7401 11.7072
v  10.1567 -8.0338 11.4038
v  11.5800 2.5536 11.7020
v  10.1578 2.5536 11.7072
v  11.5788 7.8473 11.3986
v  10.1567 7.8473 11.4038
v  8.7356 -2.7401 11.7124
v  8.7345 -8.0338 11.4090
v  8.7356 2.5536 11.7124
v  8.7345 7.8473 11.4090
v  11.5769 -2.7401 10.8798
v  11.5769 -8.0338 10.8798
v  11.5769 2.5536 10.8798
v  11.5769 7.8473 10.8798
v  10.1548 7.8473 10.8851
v  8.7326 7.8473 10.8903
v  8.7326 2.5536 10.8903
v  8.7326 -2.7401 10.8903
v  8.7326 -8.0338 10.8903
v  10.1548 -8.0338 10.8851
v  3.4944 -10.2284 10.0794
v  14.6636 -10.2284 10.0794
v  14.6636 -4.8219 10.4252
v  3.4944 -4.8219 10.4252
v  22.8859 -12.6401 1.5769
v  26.2442 -5.4998 1.5769
v  14.8208 -13.6328 -5.5680
v  3.5435 -13.6328 -5.5680
v  3.5435 -12.6401 -11.6407
v  14.8208 -12.6401 -11.6407
v  14.6636 -0.0231 10.4912
v  3.4944 -0.0231 10.4912
v  27.0706 -0.0584 1.5769
v  3.5435 -12.6401 1.5769
v  14.8208 -12.6401 1.5769
v  14.6978 -10.7527 8.3268
v  3.5051 -10.7527 8.3268
v  3.4944 10.1977 10.0794
v  3.4944 5.8249 10.4252
v  14.6636 5.8249 10.4252
v  14.6636 10.1977 10.0794
v  26.2684 6.5725 1.5769
v  22.8859 12.6555 1.5769
v  14.8208 13.6329 -5.5680
v  14.8208 12.6555 -11.6407
v  3.5435 12.6555 -11.6407
v  3.5435 13.6329 -5.5680
v  3.5435 12.6555 1.5769
v  3.5051 10.7320 8.3268
v  14.6978 10.7320 8.3268
v  14.8208 12.6555 1.5769
v  22.9582 12.6555 -11.6407
v  26.2804 6.5725 -11.6407
v  3.5435 6.5725 -11.6407
v  22.9582 -12.6401 -11.6407
v  24.0749 -13.6328 -5.7200
v  24.0749 13.6329 -5.7200
v  -28.0388 -0.0307 8.3268
v  -28.0388 -4.9693 8.3268
v  -27.2891 -4.8219 10.4252
v  -27.2891 -0.0231 10.4912
v  26.2804 -5.4998 -11.6407
v  27.3970 -5.9365 -5.7200
v  27.3970 7.0761 -5.7200
v  -28.2387 12.6555 1.5769
v  -28.2387 13.6329 -5.5680
v  -28.2387 6.5725 -5.5680
v  -28.2387 6.5725 1.5769
v  -28.2387 12.6555 -11.6407
v  -28.2387 6.5725 -11.6407
v  -27.2891 5.8249 10.4252
v  -27.2891 10.1977 10.0794
v  -28.0388 10.7320 8.3268
v  -28.2387 -13.6328 -5.5680
v  -28.2387 -12.6401 -11.6407
v  -28.2387 -12.6401 1.5769
v  -28.0388 -10.7527 8.3268
v  -27.2891 -10.2284 10.0794
v  3.5435 -5.4998 -11.6407
v  3.5435 -0.0584 -11.6407
v  27.1068 -0.0584 -11.6407
v  -28.0388 5.9874 8.3268
v  28.2235 -0.0713 -5.7200
v  -28.2387 -5.4998 -5.5680
v  -28.2387 -5.4998 1.5769
v  -28.2387 -0.0584 1.5769
v  -28.2387 -0.0584 -5.5680
v  -28.2387 -0.0584 -11.6407
v  -28.2387 -5.4998 -11.6407
# 137 vertices

vn -0.0037 -0.0000 -1.0000
vn 0.0037 -0.0752 0.9972
vn 0.0037 -0.0376 0.9993
vn 0.0037 0.0376 0.9993
vn 0.0037 0.0752 0.9972
vn 1.0000 0.0000 -0.0037
vn -0.0000 1.0000 0.0000
vn -1.0000 -0.0000 0.0037
vn 0.0000 -1.0000 0.0000
vn -0.0007 -0.0839 0.9965
vn 0.3890 -0.1222 0.9131
vn 0.3489 -0.0521 0.9357
vn -0.0007 -0.0510 0.9987
vn 0.6832 -0.3582 0.6364
vn 0.6755 -0.1892 0.7127
vn 0.0002 -1.0000 -0.0088
vn 0.0000 -1.0000 -0.0093
vn 0.0001 -0.9924 -0.1233
vn 0.3431 -0.0015 0.9393
vn -0.0007 -0.0016 1.0000
vn 0.6627 -0.0103 0.7488
vn -0.0001 -0.9782 0.2078
vn 0.0028 -0.9775 0.2107
vn 0.0005 -0.9945 0.1045
vn -0.0001 -0.9945 0.1050
vn -0.0007 0.1035 0.9946
vn -0.0007 0.0592 0.9982
vn 0.3477 0.0593 0.9357
vn 0.3863 0.1399 0.9117
vn 0.6713 0.1998 0.7138
vn 0.6600 0.4091 0.6301
vn -0.0000 1.0000 -0.0089
vn 0.0001 0.9926 -0.1214
vn 0.0000 1.0000 -0.0091
vn -0.0001 0.9774 0.2116
vn 0.0029 0.9767 0.2146
vn -0.0001 0.9946 0.1034
vn 0.0007 -0.0000 -1.0000
vn -0.0013 -0.9922 -0.1249
vn -0.0007 -0.9999 -0.0117
vn -0.0013 0.9924 -0.1229
vn -0.0002 0.9999 -0.0120
vn -0.0001 -0.9947 0.1028
vn 0.0010 0.9947 0.1024
vn -0.9583 -0.0025 0.2859
vn 0.8800 -0.4390 -0.1812
vn 0.8508 0.5028 0.1527
vn -1.0000 -0.0000 0.0006
vn -0.0007 -0.0181 0.9998
vn -0.0007 0.0149 0.9999
vn -0.0002 0.9742 0.2257
vn 0.0007 0.0000 -1.0000
vn -0.9583 0.0021 0.2859
vn 0.9783 0.1307 -0.1608
vn 0.9781 -0.1593 0.1340
vn 0.9742 -0.1586 -0.1606
vn 0.8484 0.4967 -0.1831
vn 0.8834 -0.4432 0.1525
vn 0.9827 0.1294 0.1328
vn -0.9997 -0.0000 0.0256
vn -0.9488 0.0157 0.3154
vn -0.0001 -0.9751 0.2217
vn -0.9490 -0.0128 0.3150
# 63 vertex normals

vt 0.9228 0.3191 0.0000
vt 0.9228 0.3353 0.0000
vt 0.9119 0.3353 0.0000
vt 0.9119 0.3191 0.0000
vt 0.9011 0.3353 0.0000
vt 0.9011 0.3191 0.0000
vt 0.8903 0.3353 0.0000
vt 0.8903 0.3191 0.0000
vt 0.9228 0.3515 0.0000
vt 0.9119 0.3515 0.0000
vt 0.9011 0.3515 0.0000
vt 0.8903 0.3515 0.0000
vt 0.8303 0.2820 0.0000
vt 0.8795 0.2820 0.0000
vt 0.8795 0.2989 0.0000
vt 0.8303 0.2989 0.0000
vt 0.9375 0.2820 0.0000
vt 0.9375 0.2989 0.0000
vt 0.9889 0.2820 0.0000
vt 0.9889 0.2989 0.0000
vt 0.8795 0.3154 0.0000
vt 0.8303 0.3154 0.0000
vt 0.9375 0.3154 0.0000
vt 0.9889 0.3154 0.0000
vt 0.8329 0.2530 0.0000
vt 0.8792 0.2530 0.0000
vt 0.8792 0.2596 0.0000
vt 0.8329 0.2596 0.0000
vt 0.9378 0.2530 0.0000
vt 0.9378 0.2596 0.0000
vt 0.9884 0.2530 0.0000
vt 0.9884 0.2596 0.0000
vt 0.8792 0.2660 0.0000
vt 0.8329 0.2660 0.0000
vt 0.9378 0.2660 0.0000
vt 0.9884 0.2660 0.0000
vt 0.9447 0.2185 0.0000
vt 0.9636 0.2185 0.0000
vt 0.9636 0.2351 0.0000
vt 0.9447 0.2351 0.0000
vt 0.9825 0.2185 0.0000
vt 0.9825 0.2351 0.0000
vt 0.9636 0.2514 0.0000
vt 0.9447 0.2514 0.0000
vt 0.9825 0.2514 0.0000
vt 0.9886 0.2667 0.0000
vt 0.9374 0.2667 0.0000
vt 0.9374 0.2740 0.0000
vt 0.9886 0.2740 0.0000
vt 0.8795 0.2667 0.0000
vt 0.8795 0.2740 0.0000
vt 0.8307 0.2667 0.0000
vt 0.8307 0.2740 0.0000
vt 0.9374 0.2812 0.0000
vt 0.9886 0.2812 0.0000
vt 0.8795 0.2812 0.0000
vt 0.8307 0.2812 0.0000
vt 0.8374 0.2195 0.0000
vt 0.8536 0.2195 0.0000
vt 0.8536 0.2358 0.0000
vt 0.8374 0.2358 0.0000
vt 0.8699 0.2195 0.0000
vt 0.8699 0.2358 0.0000
vt 0.8536 0.2520 0.0000
vt 0.8374 0.2520 0.0000
vt 0.8699 0.2520 0.0000
vt 0.1701 0.1558 0.0000
vt 0.2146 0.1558 0.0000
vt 0.2146 0.2086 0.0000
vt 0.1701 0.2086 0.0000
vt 0.2325 0.3423 0.0000
vt 0.2325 0.1180 0.0000
vt 0.3049 0.1180 0.0000
vt 0.3049 0.3423 0.0000
vt 0.6003 0.7940 0.0000
vt 0.4582 0.7940 0.0000
vt 0.4582 0.6794 0.0000
vt 0.6003 0.6794 0.0000
vt 0.2146 0.2488 0.0000
vt 0.1701 0.2488 0.0000
vt 0.3643 0.1180 0.0000
vt 0.3643 0.3423 0.0000
vt 0.4582 0.8763 0.0000
vt 0.6003 0.8763 0.0000
vt 0.6003 0.9643 0.0000
vt 0.4582 0.9643 0.0000
vt 0.7150 0.8763 0.0000
vt 0.6003 0.9887 0.0000
vt 0.1701 0.3428 0.0000
vt 0.1701 0.2978 0.0000
vt 0.2146 0.2978 0.0000
vt 0.2146 0.3428 0.0000
vt 0.4908 0.3423 0.0000
vt 0.4262 0.3423 0.0000
vt 0.4262 0.1180 0.0000
vt 0.4908 0.1180 0.0000
vt 0.1317 0.4718 0.0000
vt 0.1317 0.3523 0.0000
vt 0.2735 0.3538 0.0000
vt 0.2735 0.4718 0.0000
vt 0.2735 0.5481 0.0000
vt 0.2735 0.6399 0.0000
vt 0.1317 0.6399 0.0000
vt 0.1317 0.5481 0.0000
vt 0.1317 0.6654 0.0000
vt 0.0166 0.5481 0.0000
vt 0.8070 0.4976 0.0000
vt 0.8070 0.4338 0.0000
vt 0.8520 0.4338 0.0000
vt 0.8070 0.5921 0.0000
vt 0.8520 0.5921 0.0000
vt 0.7153 0.6794 0.0000
vt 0.7187 0.7920 0.0000
vt 0.0159 0.3523 0.0000
vt 0.0122 0.4701 0.0000
vt 0.6607 0.3142 0.0000
vt 0.7157 0.3142 0.0000
vt 0.7140 0.3436 0.0000
vt 0.6606 0.3445 0.0000
vt 0.8614 0.8092 0.0000
vt 0.8614 0.8892 0.0000
vt 0.8017 0.8890 0.0000
vt 0.8017 0.8091 0.0000
vt 0.9958 0.9621 0.0000
vt 0.9477 0.9623 0.0000
vt 0.9477 0.8892 0.0000
vt 0.9958 0.8891 0.0000
vt 0.5195 0.2320 0.0000
vt 0.5087 0.1451 0.0000
vt 0.5872 0.1451 0.0000
vt 0.5872 0.2320 0.0000
vt 0.5195 0.0288 0.0000
vt 0.5872 0.0288 0.0000
vt 0.0275 0.2488 0.0000
vt 0.0275 0.2086 0.0000
vt 0.0275 0.2978 0.0000
vt 0.0275 0.3428 0.0000
vt 0.7157 0.6399 0.0000
vt 0.7157 0.6654 0.0000
vt 0.2735 0.6654 0.0000
vt 0.7157 0.4718 0.0000
vt 0.7157 0.5481 0.0000
vt 0.7157 0.3523 0.0000
vt 0.8520 0.8027 0.0000
vt 0.8070 0.8027 0.0000
vt 0.0116 0.7940 0.0000
vt 0.0116 0.6794 0.0000
vt 0.0116 0.8763 0.0000
vt 0.0116 0.9643 0.0000
vt 0.0275 0.1558 0.0000
vt 0.9415 0.4338 0.0000
vt 0.9415 0.5921 0.0000
vt 0.9011 0.5921 0.0000
vt 0.9011 0.4338 0.0000
vt 0.5956 0.3436 0.0000
vt 0.5937 0.3142 0.0000
vt 0.9477 0.8092 0.0000
vt 0.9002 0.8893 0.0000
vt 0.9003 0.8093 0.0000
vt 0.8614 0.9623 0.0000
vt 0.9003 0.9623 0.0000
vt 0.7216 0.1452 0.0000
vt 0.7216 0.2320 0.0000
vt 0.6610 0.2320 0.0000
vt 0.6610 0.1452 0.0000
vt 0.6610 0.0288 0.0000
vt 0.7216 0.0288 0.0000
vt 0.9415 0.8027 0.0000
vt 0.9011 0.8027 0.0000
vt 0.9958 0.8091 0.0000
vt 0.8017 0.9621 0.0000
vt 0.8011 0.2320 0.0000
vt 0.7801 0.3142 0.0000
vt 0.5469 0.3388 0.0000
vt 0.5409 0.3142 0.0000
vt 0.8121 0.1452 0.0000
vt 0.8011 0.0288 0.0000
vt 0.9943 0.5921 0.0000
vt 0.9943 0.8027 0.0000
vt 0.9943 0.4338 0.0000
vt 0.9943 0.4976 0.0000
vt 0.4582 0.9887 0.0000
vt 0.0116 0.9887 0.0000
vt 0.7742 0.3388 0.0000
# 184 texture coords

g van_police
usemtl police_van_mat
s 2
f 1/1/1 2/2/1 3/3/1 4/4/1 
f 4/4/1 3/3/1 5/5/1 6/6/1 
f 6/6/1 5/5/1 7/7/1 8/8/1 
f 2/2/1 9/9/1 10/10/1 3/3/1 
f 3/3/1 10/10/1 11/11/1 5/5/1 
f 5/5/1 11/11/1 12/12/1 7/7/1 
s 4
f 13/13/2 14/14/3 15/15/3 16/16/2 
f 14/14/3 17/17/4 18/18/4 15/15/3 
f 17/17/4 19/19/5 20/20/5 18/18/4 
f 16/16/2 15/15/3 21/21/3 22/22/2 
f 15/15/3 18/18/4 23/23/4 21/21/3 
f 18/18/4 20/20/5 24/24/5 23/23/4 
s 8
f 1/25/6 4/26/6 25/27/6 26/28/6 
f 4/26/6 6/29/6 27/30/6 25/27/6 
f 6/29/6 8/31/6 28/32/6 27/30/6 
f 26/28/6 25/27/6 14/33/6 13/34/6 
f 25/27/6 27/30/6 17/35/6 14/33/6 
f 27/30/6 28/32/6 19/36/6 17/35/6 
s 16
f 8/37/7 7/38/7 29/39/7 28/40/7 
f 7/38/7 12/41/7 30/42/7 29/39/7 
f 28/40/7 29/39/7 20/43/7 19/44/7 
f 29/39/7 30/42/7 24/45/7 20/43/7 
s 32
f 12/46/8 11/47/8 31/48/8 30/49/8 
f 11/47/8 10/50/8 32/51/8 31/48/8 
f 10/50/8 9/52/8 33/53/8 32/51/8 
f 30/49/8 31/48/8 23/54/8 24/55/8 
f 31/48/8 32/51/8 21/56/8 23/54/8 
f 32/51/8 33/53/8 22/57/8 21/56/8 
s 64
f 9/58/9 2/59/9 34/60/9 33/61/9 
f 2/59/9 1/62/9 26/63/9 34/60/9 
f 33/61/9 34/60/9 16/64/9 22/65/9 
f 34/60/9 26/63/9 13/66/9 16/64/9 
s 2
f 35/1/1 36/2/1 37/3/1 38/4/1 
f 38/4/1 37/3/1 39/5/1 40/6/1 
f 40/6/1 39/5/1 41/7/1 42/8/1 
f 36/2/1 43/9/1 44/10/1 37/3/1 
f 37/3/1 44/10/1 45/11/1 39/5/1 
f 39/5/1 45/11/1 46/12/1 41/7/1 
s 4
f 47/13/2 48/14/3 49/15/3 50/16/2 
f 48/14/3 51/17/4 52/18/4 49/15/3 
f 51/17/4 53/19/5 54/20/5 52/18/4 
f 50/16/2 49/15/3 55/21/3 56/22/2 
f 49/15/3 52/18/4 57/23/4 55/21/3 
f 52/18/4 54/20/5 58/24/5 57/23/4 
s 8
f 35/25/6 38/26/6 59/27/6 60/28/6 
f 38/26/6 40/29/6 61/30/6 59/27/6 
f 40/29/6 42/31/6 62/32/6 61/30/6 
f 60/28/6 59/27/6 48/33/6 47/34/6 
f 59/27/6 61/30/6 51/35/6 48/33/6 
f 61/30/6 62/32/6 53/36/6 51/35/6 
s 16
f 42/37/7 41/38/7 63/39/7 62/40/7 
f 41/38/7 46/41/7 64/42/7 63/39/7 
f 62/40/7 63/39/7 54/43/7 53/44/7 
f 63/39/7 64/42/7 58/45/7 54/43/7 
s 32
f 46/46/8 45/47/8 65/48/8 64/49/8 
f 45/47/8 44/50/8 66/51/8 65/48/8 
f 44/50/8 43/52/8 67/53/8 66/51/8 
f 64/49/8 65/48/8 57/54/8 58/55/8 
f 65/48/8 66/51/8 55/56/8 57/54/8 
f 66/51/8 67/53/8 56/57/8 55/56/8 
s 64
f 43/58/9 36/59/9 68/60/9 67/61/9 
f 36/59/9 35/62/9 60/63/9 68/60/9 
f 67/61/9 68/60/9 50/64/9 56/65/9 
f 68/60/9 60/63/9 47/66/9 50/64/9 
s 4
f 69/67/10 70/68/11 71/69/12 72/70/13 
f 70/71/11 73/72/14 74/73/15 71/74/12 
s 16
f 75/75/16 76/76/17 77/77/18 78/78/18 
s 4
f 72/70/13 71/69/12 79/79/19 80/80/20 
f 71/74/12 74/73/15 81/81/21 79/82/19 
s off
f 82/83/22 83/84/22 84/85/22 85/86/22 
f 84/85/23 83/84/23 73/87/23 70/88/23 
s 16
f 83/84/24 82/83/25 76/76/17 75/75/16 
s 4
f 86/89/26 87/90/27 88/91/28 89/92/29 
f 89/93/29 88/94/28 90/95/30 91/96/31 
s 16
f 92/97/32 93/98/33 94/99/33 95/100/34 
s 4
f 87/90/27 80/80/20 79/79/19 88/91/28 
f 88/94/28 79/82/19 81/81/21 90/95/30 
s off
f 96/101/35 97/102/35 98/103/35 99/104/35 
f 98/103/36 89/105/36 91/106/36 99/104/36 
s 16
f 99/104/37 92/97/32 95/100/34 96/101/37 
s off
f 93/107/38 100/108/38 101/109/38 94/110/38 
f 94/110/38 101/109/38 102/111/38 
s 16
f 75/75/16 78/78/18 103/112/39 104/113/40 
f 100/114/41 93/98/33 92/97/32 105/115/42 
f 83/84/24 75/75/16 104/113/40 73/87/43 
f 92/97/32 99/104/37 91/106/44 105/115/42 
s off
f 106/116/45 107/117/45 108/118/45 109/119/45 
f 110/120/46 111/121/46 104/122/46 103/123/46 
f 91/124/47 90/125/47 112/126/47 105/127/47 
f 113/128/48 114/129/48 115/130/48 116/131/48 
f 114/129/48 117/132/48 118/133/48 115/130/48 
f 72/70/49 80/80/49 109/134/49 108/135/49 
f 80/80/50 87/90/50 119/136/50 109/134/50 
f 87/90/26 86/89/26 120/137/26 119/136/26 
f 97/102/51 121/138/51 120/139/51 86/140/51 
f 96/101/37 95/100/37 114/141/37 113/142/37 
f 95/100/33 94/99/33 117/143/33 114/141/33 
f 94/110/38 102/111/38 118/144/38 117/145/38 
f 77/77/18 76/76/18 122/146/18 123/147/18 
f 76/76/25 82/83/25 124/148/25 122/146/25 
f 85/86/22 125/149/22 124/148/22 82/83/22 
f 69/67/10 72/70/10 108/135/10 126/150/10 
f 110/151/52 127/152/52 128/153/52 129/154/52 
f 119/155/53 130/156/53 106/116/53 109/119/53 
f 101/157/54 112/126/54 131/158/54 129/159/54 
f 74/160/55 111/121/55 131/158/55 81/161/55 
f 132/162/48 133/163/48 134/164/48 135/165/48 
f 136/166/48 137/167/48 132/162/48 135/165/48 
f 127/152/52 137/168/52 136/169/52 128/153/52 
f 129/159/56 131/158/56 111/121/56 110/120/56 
f 100/170/57 105/127/57 112/126/57 101/157/57 
f 73/171/58 104/122/58 111/121/58 74/160/58 
f 90/125/59 81/161/59 131/158/59 112/126/59 
f 101/109/38 129/154/38 128/153/38 102/111/38 
f 133/163/60 124/172/60 125/173/60 107/117/60 
f 135/165/48 134/164/48 116/131/48 115/130/48 
f 136/166/48 135/165/48 115/130/48 118/133/48 
f 102/111/52 128/153/52 136/169/52 118/144/52 
f 120/174/61 121/175/61 130/156/61 119/155/61 
f 122/176/48 124/172/48 133/163/48 132/162/48 
f 137/167/48 123/177/48 122/176/48 132/162/48 
f 77/178/38 123/179/38 137/168/38 127/152/38 
f 110/151/52 103/180/52 78/181/52 77/178/52 
f 110/151/38 77/178/38 127/152/38 
f 70/88/62 69/182/62 85/86/62 84/85/62 
f 86/140/51 89/105/51 98/103/51 97/102/51 
f 134/164/60 133/163/60 107/117/60 106/116/60 
f 96/101/35 113/142/35 121/138/35 97/102/35 
f 69/182/62 126/183/62 125/149/62 85/86/62 
f 130/156/60 116/131/60 134/164/60 106/116/60 
f 126/184/63 108/118/63 107/117/63 125/173/63 
f 121/175/60 113/128/60 116/131/60 130/156/60 
# 130 polygons - 2 triangles

