# 3ds Max Wavefront OBJ Exporter v0.97b - (c)2007 guruware
# File Created: 11.09.2020 14:24:04

mtllib publicWorks_boxTruck.mtl

#
# object public_works
#

v  5.9012 -10.3825 9.5917
v  17.0704 -10.3825 9.5917
v  17.0704 -4.9760 9.9375
v  5.9012 -4.9760 9.9375
v  25.2926 -12.7942 1.0892
v  28.6510 -5.6539 1.0892
v  17.2276 -13.7869 -6.0557
v  5.9503 -13.7869 -6.0557
v  5.9503 -12.7942 -12.1285
v  17.2276 -12.7942 -12.1285
v  17.0704 -0.1771 10.0035
v  5.9012 -0.1771 10.0035
v  29.4774 -0.2125 1.0892
v  5.9503 -12.7942 1.0892
v  17.2276 -12.7942 1.0892
v  17.1046 -10.9068 7.8391
v  5.9119 -10.9068 7.8391
v  5.9012 10.0436 9.5917
v  5.9012 5.6708 9.9375
v  17.0704 5.6708 9.9375
v  17.0704 10.0436 9.5917
v  28.6752 6.4184 1.0892
v  25.2926 12.5014 1.0892
v  17.2276 13.4788 -6.0557
v  17.2276 12.5014 -12.1285
v  5.9503 12.5014 -12.1285
v  5.9503 13.4788 -6.0557
v  5.9503 12.5014 1.0892
v  5.9119 10.5779 7.8391
v  17.1046 10.5779 7.8391
v  17.2276 12.5014 1.0892
v  25.3650 12.5014 -12.1285
v  28.6871 6.4184 -12.1285
v  5.9503 6.4184 -12.1285
v  25.3650 -12.7942 -12.1285
v  26.4817 -13.7869 -6.2077
v  26.4817 13.4788 -6.2077
v  28.6871 -5.6539 -12.1285
v  29.8038 -6.0906 -6.2077
v  29.8038 6.9220 -6.2077
v  -25.8319 13.4788 -6.0557
v  -25.8319 12.5014 -12.1285
v  -25.8319 6.4184 -12.1285
v  -25.8319 6.4184 -6.0557
v  -25.8319 -13.7869 -6.0557
v  -25.8319 -12.7942 -12.1285
v  5.9503 -5.6539 -12.1285
v  5.9503 -0.2125 -12.1285
v  29.5136 -0.2125 -12.1285
v  30.6303 -0.2254 -6.2077
v  -25.8319 -0.2125 -12.1285
v  -25.8319 -5.6539 -12.1285
v  -25.8319 -5.6539 -6.0557
v  -25.8319 -0.2125 -6.0557
v  5.9503 0.0173 -6.0557
v  5.9119 -0.0418 7.8390
v  5.9503 0.0332 1.0892
v  12.9736 -8.1572 9.7648
v  11.5517 -8.1572 9.7914
v  11.5517 -2.8635 9.7914
v  12.9736 -2.8635 9.7648
v  11.5517 2.4302 9.7914
v  12.9736 2.4302 9.7648
v  11.5517 7.7239 9.7914
v  12.9736 7.7239 9.7648
v  10.1297 -8.1572 9.8179
v  10.1297 -2.8635 9.8179
v  10.1297 2.4302 9.8179
v  10.1297 7.7239 9.8179
v  12.9970 -8.1572 11.0171
v  13.0026 -2.8635 11.3204
v  11.5807 -2.8635 11.3470
v  11.5750 -8.1572 11.0436
v  13.0026 2.4302 11.3204
v  11.5807 2.4302 11.3470
v  12.9970 7.7239 11.0171
v  11.5750 7.7239 11.0436
v  10.1588 -2.8635 11.3735
v  10.1531 -8.1572 11.0702
v  10.1588 2.4302 11.3735
v  10.1531 7.7239 11.0702
v  12.9873 -2.8635 10.4984
v  12.9873 -8.1572 10.4984
v  12.9873 2.4302 10.4984
v  12.9873 7.7239 10.4984
v  11.5654 7.7239 10.5249
v  10.1434 7.7239 10.5515
v  10.1434 2.4302 10.5515
v  10.1434 -2.8635 10.5515
v  10.1434 -8.1572 10.5515
v  11.5654 -8.1572 10.5249
# 91 vertices

vn -0.0000 -0.0828 0.9966
vn 0.4114 -0.1202 0.9035
vn 0.3686 -0.0512 0.9282
vn -0.0000 -0.0504 0.9987
vn 0.7144 -0.3398 0.6117
vn 0.7064 -0.1805 0.6844
vn 0.0002 -1.0000 -0.0089
vn -0.0000 -1.0000 -0.0093
vn -0.0000 -0.9922 -0.1248
vn 0.3629 -0.0015 0.9318
vn -0.0000 -0.0016 1.0000
vn 0.6934 -0.0098 0.7205
vn 0.0000 -0.9776 0.2103
vn 0.0033 -0.9770 0.2133
vn 0.0006 -0.9944 0.1058
vn -0.0000 -0.9943 0.1063
vn 0.0000 0.1022 0.9948
vn 0.0000 0.0585 0.9983
vn 0.3674 0.0582 0.9282
vn 0.4088 0.1375 0.9022
vn 0.7023 0.1920 0.6855
vn 0.6923 0.3893 0.6075
vn -0.0000 1.0000 -0.0090
vn 0.0000 0.9924 -0.1229
vn 0.0000 1.0000 -0.0092
vn 0.0000 0.9768 0.2142
vn 0.0033 0.9761 0.2172
vn 0.0000 0.9945 0.1047
vn -0.0000 -0.0000 -1.0000
vn -0.0000 0.0000 -1.0000
vn -0.0015 -0.9920 -0.1263
vn -0.0008 -0.9999 -0.0121
vn -0.0015 0.9922 -0.1244
vn -0.0003 0.9999 -0.0124
vn -0.0000 -0.9946 0.1041
vn 0.0011 0.9946 0.1037
vn 0.8977 -0.4066 -0.1695
vn 0.8720 0.4678 0.1443
vn -1.0000 0.0000 0.0000
vn -0.0000 0.9924 -0.1229
vn 0.0000 -0.0000 -1.0000
vn 0.9818 0.1191 -0.1479
vn 0.9816 -0.1451 0.1241
vn 0.9784 -0.1447 -0.1478
vn 0.8698 0.4624 -0.1721
vn 0.9007 -0.4101 0.1434
vn 0.9854 0.1178 0.1229
vn 0.0000 -0.9745 0.2243
vn -0.0000 0.9736 0.2284
vn 0.0000 0.0000 1.0000
vn -1.0000 0.0001 -0.0042
vn -1.0000 0.0001 -0.0038
vn -1.0000 0.0000 -0.0044
vn -1.0000 -0.0000 -0.0000
vn -1.0000 -0.0001 -0.0042
vn -1.0000 -0.0001 -0.0038
vn -1.0000 0.0000 -0.0000
vn -0.0240 0.0000 -0.9997
vn -0.0240 -0.0000 -0.9997
vn 0.0239 -0.0743 0.9970
vn 0.0240 -0.0372 0.9990
vn 0.0240 0.0372 0.9990
vn 0.0239 0.0743 0.9970
vn 0.9999 -0.0000 -0.0145
vn 0.9999 0.0000 -0.0145
vn 0.0000 1.0000 0.0000
vn 0.0000 1.0000 -0.0000
vn -0.9999 0.0000 0.0145
vn -0.9999 -0.0000 0.0145
vn -0.0000 -1.0000 0.0000
vn -0.0000 -1.0000 -0.0000
vn 0.0000 -1.0000 -0.0000
# 72 vertex normals

vt 0.1701 0.1558 0.0000
vt 0.2146 0.1558 0.0000
vt 0.2146 0.2086 0.0000
vt 0.1701 0.2086 0.0000
vt 0.2325 0.3423 0.0000
vt 0.2325 0.1180 0.0000
vt 0.3049 0.1180 0.0000
vt 0.3049 0.3423 0.0000
vt 0.6003 0.7940 0.0000
vt 0.4582 0.7940 0.0000
vt 0.4582 0.6794 0.0000
vt 0.6003 0.6794 0.0000
vt 0.2146 0.2488 0.0000
vt 0.1701 0.2488 0.0000
vt 0.3643 0.1180 0.0000
vt 0.3643 0.3423 0.0000
vt 0.4582 0.8763 0.0000
vt 0.6003 0.8763 0.0000
vt 0.6003 0.9643 0.0000
vt 0.4582 0.9643 0.0000
vt 0.7150 0.8763 0.0000
vt 0.6003 0.9887 0.0000
vt 0.1701 0.3428 0.0000
vt 0.1701 0.2978 0.0000
vt 0.2146 0.2978 0.0000
vt 0.2146 0.3428 0.0000
vt 0.4908 0.3423 0.0000
vt 0.4262 0.3423 0.0000
vt 0.4262 0.1180 0.0000
vt 0.4908 0.1180 0.0000
vt 0.1317 0.4718 0.0000
vt 0.1317 0.3523 0.0000
vt 0.2735 0.3538 0.0000
vt 0.2735 0.4718 0.0000
vt 0.2735 0.5481 0.0000
vt 0.2735 0.6399 0.0000
vt 0.1317 0.6399 0.0000
vt 0.1317 0.5481 0.0000
vt 0.1317 0.6654 0.0000
vt 0.0166 0.5481 0.0000
vt 0.8070 0.4976 0.0000
vt 0.8070 0.4338 0.0000
vt 0.8520 0.4338 0.0000
vt 0.8070 0.5921 0.0000
vt 0.8520 0.5921 0.0000
vt 0.7153 0.6794 0.0000
vt 0.7187 0.7920 0.0000
vt 0.0159 0.3523 0.0000
vt 0.0122 0.4701 0.0000
vt 0.8614 0.8102 0.0000
vt 0.8614 0.8892 0.0000
vt 0.8030 0.8890 0.0000
vt 0.8030 0.8100 0.0000
vt 0.9933 0.9621 0.0000
vt 0.9477 0.9623 0.0000
vt 0.9477 0.8892 0.0000
vt 0.9932 0.8891 0.0000
vt 0.5087 0.1451 0.0000
vt 0.5195 0.0288 0.0000
vt 0.5872 0.0288 0.0000
vt 0.5872 0.1451 0.0000
vt 0.7157 0.3523 0.0000
vt 0.7157 0.4718 0.0000
vt 0.8520 0.8027 0.0000
vt 0.8070 0.8027 0.0000
vt 0.0129 0.7940 0.0000
vt 0.0129 0.6794 0.0000
vt 0.9415 0.4338 0.0000
vt 0.9415 0.5921 0.0000
vt 0.9011 0.5921 0.0000
vt 0.9011 0.4338 0.0000
vt 0.9477 0.8102 0.0000
vt 0.9002 0.8893 0.0000
vt 0.9003 0.8103 0.0000
vt 0.8614 0.9623 0.0000
vt 0.9003 0.9623 0.0000
vt 0.6610 0.0288 0.0000
vt 0.7216 0.0288 0.0000
vt 0.7216 0.1452 0.0000
vt 0.6610 0.1452 0.0000
vt 0.9415 0.8027 0.0000
vt 0.9011 0.8027 0.0000
vt 0.9933 0.8101 0.0000
vt 0.8017 0.9621 0.0000
vt 0.8011 0.0288 0.0000
vt 0.8121 0.1452 0.0000
vt 0.9943 0.5921 0.0000
vt 0.9943 0.8027 0.0000
vt 0.9943 0.4338 0.0000
vt 0.9943 0.4976 0.0000
vt 0.4582 0.9887 0.0000
vt 0.2735 0.6654 0.0000
vt 0.3662 0.3524 0.0000
vt 0.4283 0.3524 0.0000
vt 0.4283 0.4680 0.0000
vt 0.3026 0.3524 0.0000
vt 0.3026 0.4680 0.0000
vt 0.7953 0.3238 0.0000
vt 0.7889 0.3420 0.0000
vt 0.7222 0.3420 0.0000
vt 0.6617 0.3238 0.0000
vt 0.6617 0.3420 0.0000
vt 0.5304 0.3238 0.0000
vt 0.5067 0.2464 0.0000
vt 0.6617 0.2464 0.0000
vt 0.4936 0.1580 0.0000
vt 0.6617 0.1580 0.0000
vt 0.5909 0.3420 0.0000
vt 0.5370 0.3420 0.0000
vt 0.8186 0.2464 0.0000
vt 0.8305 0.1580 0.0000
vt 0.8624 0.3184 0.0000
vt 0.8624 0.3347 0.0000
vt 0.8516 0.3347 0.0000
vt 0.8516 0.3184 0.0000
vt 0.8408 0.3347 0.0000
vt 0.8408 0.3184 0.0000
vt 0.8299 0.3347 0.0000
vt 0.8299 0.3184 0.0000
vt 0.8624 0.3509 0.0000
vt 0.8516 0.3509 0.0000
vt 0.8408 0.3509 0.0000
vt 0.8299 0.3509 0.0000
vt 0.8280 0.2824 0.0000
vt 0.8772 0.2824 0.0000
vt 0.8772 0.2993 0.0000
vt 0.8280 0.2993 0.0000
vt 0.9352 0.2824 0.0000
vt 0.9352 0.2993 0.0000
vt 0.9866 0.2824 0.0000
vt 0.9866 0.2993 0.0000
vt 0.8772 0.3158 0.0000
vt 0.8280 0.3158 0.0000
vt 0.9352 0.3158 0.0000
vt 0.9866 0.3158 0.0000
vt 0.8307 0.2534 0.0000
vt 0.8769 0.2534 0.0000
vt 0.8769 0.2600 0.0000
vt 0.8307 0.2600 0.0000
vt 0.9355 0.2534 0.0000
vt 0.9355 0.2600 0.0000
vt 0.9861 0.2534 0.0000
vt 0.9861 0.2600 0.0000
vt 0.8769 0.2664 0.0000
vt 0.8307 0.2664 0.0000
vt 0.9355 0.2664 0.0000
vt 0.9861 0.2664 0.0000
vt 0.9424 0.2189 0.0000
vt 0.9613 0.2189 0.0000
vt 0.9613 0.2355 0.0000
vt 0.9424 0.2355 0.0000
vt 0.9802 0.2189 0.0000
vt 0.9802 0.2355 0.0000
vt 0.9613 0.2518 0.0000
vt 0.9424 0.2518 0.0000
vt 0.9802 0.2518 0.0000
vt 0.9863 0.2671 0.0000
vt 0.9351 0.2671 0.0000
vt 0.9351 0.2744 0.0000
vt 0.9863 0.2744 0.0000
vt 0.8773 0.2671 0.0000
vt 0.8773 0.2744 0.0000
vt 0.8284 0.2671 0.0000
vt 0.8284 0.2744 0.0000
vt 0.9351 0.2816 0.0000
vt 0.9863 0.2816 0.0000
vt 0.8773 0.2816 0.0000
vt 0.8284 0.2816 0.0000
vt 0.8351 0.2199 0.0000
vt 0.8513 0.2199 0.0000
vt 0.8513 0.2362 0.0000
vt 0.8351 0.2362 0.0000
vt 0.8676 0.2199 0.0000
vt 0.8676 0.2362 0.0000
vt 0.8513 0.2524 0.0000
vt 0.8351 0.2524 0.0000
vt 0.8676 0.2524 0.0000
# 177 texture coords

g public_works
usemtl publicWorks_mat
s 4
f 1/1/1 2/2/2 3/3/3 4/4/4 
f 2/5/2 5/6/5 6/7/6 3/8/3 
s 16
f 7/9/7 8/10/8 9/11/9 10/12/9 
s 4
f 4/4/4 3/3/3 11/13/10 12/14/11 
f 3/8/3 6/7/6 13/15/12 11/16/10 
s off
f 14/17/13 15/18/13 16/19/13 17/20/13 
f 16/19/14 15/18/14 5/21/14 2/22/14 
s 16
f 15/18/15 14/17/16 8/10/8 7/9/7 
s 4
f 18/23/17 19/24/18 20/25/19 21/26/20 
f 21/27/20 20/28/19 22/29/21 23/30/22 
s 16
f 24/31/23 25/32/24 26/33/24 27/34/25 
s 4
f 19/24/18 12/14/11 11/13/10 20/25/19 
f 20/28/19 11/16/10 13/15/12 22/29/21 
s off
f 28/35/26 29/36/26 30/37/26 31/38/26 
f 30/37/27 21/39/27 23/40/27 31/38/27 
s 16
f 31/38/28 24/31/23 27/34/25 28/35/28 
s off
f 25/41/29 32/42/29 33/43/29 26/44/29 
f 26/44/30 33/43/30 34/45/30 
s 16
f 7/9/7 10/12/9 35/46/31 36/47/32 
f 32/48/33 25/32/24 24/31/23 37/49/34 
f 15/18/15 7/9/7 36/47/32 5/21/35 
f 24/31/23 31/38/28 23/40/36 37/49/34 
s off
f 38/50/37 39/51/37 36/52/37 35/53/37 
f 23/54/38 22/55/38 40/56/38 37/57/38 
f 41/58/39 42/59/39 43/60/39 44/61/39 
f 27/34/40 26/33/40 42/62/40 41/63/40 
f 26/44/41 34/45/41 43/64/41 42/65/41 
f 9/11/9 8/10/9 45/66/9 46/67/9 
f 38/68/30 47/69/30 48/70/30 49/71/30 
f 33/72/42 40/56/42 50/73/42 49/74/42 
f 6/75/43 39/51/43 50/73/43 13/76/43 
f 51/77/39 52/78/39 53/79/39 54/80/39 
f 47/69/41 52/81/41 51/82/41 48/70/41 
f 49/74/44 50/73/44 39/51/44 38/50/44 
f 32/83/45 37/57/45 40/56/45 33/72/45 
f 5/84/46 36/52/46 39/51/46 6/75/46 
f 22/55/47 13/76/47 50/73/47 40/56/47 
f 33/43/29 49/71/29 48/70/29 34/45/29 
f 51/77/39 54/80/39 44/61/39 43/60/39 
f 34/45/41 48/70/41 51/82/41 43/64/41 
f 52/78/39 46/85/39 45/86/39 53/79/39 
f 9/87/41 46/88/41 52/81/41 47/69/41 
f 38/68/30 35/89/30 10/90/30 9/87/30 
f 38/68/30 9/87/30 47/69/30 
f 2/22/48 1/91/48 17/20/48 16/19/48 
f 18/92/49 21/39/49 30/37/49 29/36/49 
s 1
f 55/93/50 27/94/50 41/95/50 8/96/50 
f 45/97/50 8/96/50 41/95/50 
s off
f 17/98/51 1/99/51 4/100/51 56/101/51 
f 12/102/52 56/101/52 4/100/52 
f 29/103/53 28/104/53 57/105/53 56/101/53 
f 28/104/54 27/106/54 55/107/54 57/105/54 
f 19/108/55 18/109/55 29/103/55 56/101/55 
f 12/102/56 19/108/56 56/101/56 
f 57/105/53 14/110/53 17/98/53 56/101/53 
f 55/107/57 8/111/57 14/110/57 57/105/57 
s 2
f 58/112/58 59/113/58 60/114/58 61/115/58 
f 61/115/58 60/114/58 62/116/58 63/117/59 
f 63/117/59 62/116/58 64/118/59 65/119/59 
f 59/113/58 66/120/58 67/121/58 60/114/58 
f 60/114/58 67/121/58 68/122/58 62/116/58 
f 62/116/58 68/122/58 69/123/58 64/118/59 
s 4
f 70/124/60 71/125/61 72/126/61 73/127/60 
f 71/125/61 74/128/62 75/129/62 72/126/61 
f 74/128/62 76/130/63 77/131/63 75/129/62 
f 73/127/60 72/126/61 78/132/61 79/133/60 
f 72/126/61 75/129/62 80/134/62 78/132/61 
f 75/129/62 77/131/63 81/135/63 80/134/62 
s 8
f 58/136/64 61/137/64 82/138/64 83/139/64 
f 61/137/64 63/140/65 84/141/64 82/138/64 
f 63/140/65 65/142/65 85/143/65 84/141/64 
f 83/139/64 82/138/64 71/144/64 70/145/64 
f 82/138/64 84/141/64 74/146/65 71/144/64 
f 84/141/64 85/143/65 76/147/64 74/146/65 
s 16
f 65/148/66 64/149/67 86/150/67 85/151/66 
f 64/149/67 69/152/67 87/153/67 86/150/67 
f 85/151/66 86/150/67 77/154/67 76/155/66 
f 86/150/67 87/153/67 81/156/67 77/154/67 
s 32
f 69/157/68 68/158/68 88/159/68 87/160/68 
f 68/158/68 67/161/68 89/162/69 88/159/68 
f 67/161/68 66/163/68 90/164/68 89/162/69 
f 87/160/68 88/159/68 80/165/68 81/166/68 
f 88/159/68 89/162/69 78/167/69 80/165/68 
f 89/162/69 90/164/68 79/168/68 78/167/69 
s 64
f 66/169/70 59/170/71 91/171/71 90/172/70 
f 59/170/71 58/173/72 83/174/72 91/171/71 
f 90/172/70 91/171/71 73/175/70 79/176/70 
f 91/171/71 83/174/72 70/177/72 73/175/70 
# 83 polygons - 5 triangles

#
# object truck_box
#

v  -26.8714 -14.7990 -5.6852
v  -26.8714 14.6672 -5.6852
v  5.8225 14.6672 -5.6852
v  5.8225 -14.7990 -5.6852
v  -26.8714 -14.7990 14.9673
v  5.8225 -14.7990 14.9673
v  5.8225 14.6672 14.9673
v  -26.8714 14.6672 14.9673
# 8 vertices

vn 0.0000 0.0000 -1.0000
vn 0.0000 0.0000 1.0000
vn 0.0000 -1.0000 0.0000
vn 1.0000 0.0000 0.0000
vn 0.0000 1.0000 0.0000
vn -1.0000 0.0000 0.0000
# 6 vertex normals

vt 0.6255 0.5081 0.0000
vt 0.9841 0.5081 0.0000
vt 0.9841 0.8668 0.0000
vt 0.6255 0.8668 0.0000
vt 0.1229 0.5016 0.0000
vt 0.6092 0.5016 0.0000
vt 0.6092 0.8712 0.0000
vt 0.1229 0.8712 0.0000
vt 0.1223 0.1108 0.0000
vt 0.4331 0.1108 0.0000
vt 0.4331 0.4798 0.0000
vt 0.1223 0.4798 0.0000
vt 0.4496 0.1097 0.0000
vt 0.7618 0.1097 0.0000
vt 0.7618 0.4807 0.0000
vt 0.4496 0.4807 0.0000
# 16 texture coords

g truck_box
usemtl truckBox_mat
s 2
f 92/178/73 93/179/73 94/180/73 95/181/73 
s 4
f 96/178/74 97/179/74 98/180/74 99/181/74 
s 8
f 92/182/75 95/183/75 97/184/75 96/185/75 
s 16
f 95/186/76 94/187/76 98/188/76 97/189/76 
s 32
f 94/182/77 93/183/77 99/184/77 98/185/77 
s 64
f 93/190/78 92/191/78 96/192/78 99/193/78 
# 6 polygons

