# 3ds Max Wavefront OBJ Exporter v0.97b - (c)2007 guruware
# File Created: 12.09.2020 16:20:12

mtllib van.mtl

#
# object van
#

v  3.5020 -10.2284 10.6542
v  14.6712 -10.2284 10.6542
v  14.6712 -4.8219 11.0000
v  3.5020 -4.8219 11.0000
v  22.8935 -12.6401 2.1516
v  26.2518 -5.4998 2.1516
v  14.8284 -13.6328 -4.9932
v  3.5511 -13.6328 -4.9932
v  3.5511 -12.6401 -11.0660
v  14.8284 -12.6401 -11.0660
v  14.6712 -0.0231 11.0660
v  3.5020 -0.0231 11.0660
v  27.0783 -0.0584 2.1516
v  3.5511 -12.6401 2.1516
v  14.8284 -12.6401 2.1516
v  14.7054 -10.7527 8.9015
v  3.5127 -10.7527 8.9015
v  3.5020 10.1977 10.6542
v  3.5020 5.8249 11.0000
v  14.6712 5.8249 11.0000
v  14.6712 10.1977 10.6542
v  26.2760 6.5725 2.1516
v  22.8935 12.6555 2.1516
v  14.8284 13.6328 -4.9932
v  14.8284 12.6555 -11.0660
v  3.5511 12.6555 -11.0660
v  3.5512 13.6328 -4.9932
v  3.5511 12.6555 2.1516
v  3.5127 10.7320 8.9015
v  14.7054 10.7320 8.9015
v  14.8284 12.6555 2.1516
v  22.9658 12.6555 -11.0660
v  26.2880 6.5725 -11.0660
v  3.5511 6.5725 -11.0660
v  22.9658 -12.6401 -11.0660
v  24.0825 -13.6328 -5.1452
v  24.0825 13.6328 -5.1452
v  -28.0312 -0.0307 8.9015
v  -28.0312 -4.9693 8.9015
v  -27.2814 -4.8219 11.0000
v  -27.2814 -0.0231 11.0660
v  26.2880 -5.4998 -11.0660
v  27.4047 -5.9365 -5.1452
v  27.4047 7.0761 -5.1452
v  -28.2311 12.6555 2.1516
v  -28.2311 13.6328 -4.9932
v  -28.2311 6.5725 -4.9932
v  -28.2311 6.5725 2.1516
v  -28.2311 12.6555 -11.0660
v  -28.2311 6.5725 -11.0660
v  -27.2814 5.8249 11.0000
v  -27.2814 10.1977 10.6542
v  -28.0312 10.7320 8.9015
v  -28.2311 -13.6328 -4.9932
v  -28.2311 -12.6401 -11.0660
v  -28.2311 -12.6401 2.1516
v  -28.0312 -10.7527 8.9015
v  -27.2814 -10.2284 10.6542
v  3.5511 -5.4998 -11.0660
v  3.5511 -0.0584 -11.0660
v  27.1144 -0.0584 -11.0660
v  -28.0312 5.9874 8.9015
v  28.2311 -0.0713 -5.1452
v  -28.2311 -5.4998 -4.9932
v  -28.2311 -5.4998 2.1516
v  -28.2311 -0.0584 2.1516
v  -28.2311 -0.0584 -4.9932
v  -28.2311 -0.0584 -11.0660
v  -28.2311 -5.4998 -11.0660
# 69 vertices

vn -0.0000 -0.0828 0.9966
vn 0.4114 -0.1202 0.9035
vn 0.3686 -0.0512 0.9282
vn -0.0000 -0.0504 0.9987
vn 0.7144 -0.3398 0.6117
vn 0.7064 -0.1805 0.6844
vn 0.0002 -1.0000 -0.0089
vn -0.0000 -1.0000 -0.0093
vn -0.0000 -0.9922 -0.1248
vn 0.3629 -0.0015 0.9318
vn -0.0000 -0.0016 1.0000
vn 0.6934 -0.0098 0.7205
vn 0.0000 -0.9776 0.2103
vn 0.0033 -0.9770 0.2133
vn 0.0006 -0.9944 0.1058
vn -0.0000 -0.9943 0.1063
vn 0.0000 0.1022 0.9948
vn 0.0000 0.0585 0.9983
vn 0.3674 0.0582 0.9282
vn 0.4088 0.1375 0.9022
vn 0.7023 0.1920 0.6855
vn 0.6923 0.3893 0.6075
vn -0.0000 1.0000 -0.0090
vn 0.0000 0.9924 -0.1229
vn 0.0000 1.0000 -0.0092
vn 0.0000 0.9768 0.2142
vn 0.0033 0.9761 0.2172
vn 0.0000 0.9945 0.1047
vn -0.0000 -0.0000 -1.0000
vn -0.0000 0.0000 -1.0000
vn -0.0015 -0.9920 -0.1263
vn -0.0008 -0.9999 -0.0121
vn -0.0015 0.9922 -0.1244
vn -0.0003 0.9999 -0.0124
vn -0.0000 -0.9946 0.1041
vn 0.0011 0.9946 0.1037
vn -0.9645 -0.0023 0.2641
vn 0.8977 -0.4066 -0.1695
vn 0.8720 0.4678 0.1443
vn -1.0000 0.0000 0.0000
vn -0.0000 -0.0179 0.9998
vn -0.0000 0.0147 0.9999
vn -0.0000 0.1022 0.9948
vn -0.0000 0.9736 0.2284
vn -0.0000 0.9945 0.1047
vn -0.0000 0.9924 -0.1229
vn 0.0000 -0.0000 -1.0000
vn -0.0000 -0.9776 0.2103
vn -0.9645 0.0019 0.2641
vn 0.9818 0.1191 -0.1479
vn 0.9816 -0.1451 0.1241
vn 0.9784 -0.1447 -0.1478
vn 0.8698 0.4624 -0.1721
vn 0.9007 -0.4101 0.1434
vn 0.9854 0.1178 0.1229
vn -0.9997 0.0000 0.0230
vn -0.9564 0.0144 0.2918
vn 0.0000 -0.9745 0.2243
vn -0.0000 0.9768 0.2142
vn -0.0000 -0.9745 0.2243
vn -0.9565 -0.0117 0.2914
# 61 vertex normals

vt 0.1701 0.1558 0.0000
vt 0.2146 0.1558 0.0000
vt 0.2146 0.2086 0.0000
vt 0.1701 0.2086 0.0000
vt 0.2325 0.3423 0.0000
vt 0.2325 0.1180 0.0000
vt 0.3049 0.1180 0.0000
vt 0.3049 0.3423 0.0000
vt 0.6003 0.7940 0.0000
vt 0.4582 0.7940 0.0000
vt 0.4582 0.6794 0.0000
vt 0.6003 0.6794 0.0000
vt 0.2146 0.2488 0.0000
vt 0.1701 0.2488 0.0000
vt 0.3643 0.1180 0.0000
vt 0.3643 0.3423 0.0000
vt 0.4582 0.8763 0.0000
vt 0.6003 0.8763 0.0000
vt 0.6003 0.9643 0.0000
vt 0.4582 0.9643 0.0000
vt 0.7136 0.8763 0.0000
vt 0.6003 0.9887 0.0000
vt 0.1701 0.3428 0.0000
vt 0.1701 0.2978 0.0000
vt 0.2146 0.2978 0.0000
vt 0.2146 0.3428 0.0000
vt 0.4908 0.3423 0.0000
vt 0.4262 0.3423 0.0000
vt 0.4262 0.1180 0.0000
vt 0.4908 0.1180 0.0000
vt 0.1317 0.4718 0.0000
vt 0.1317 0.3523 0.0000
vt 0.2735 0.3538 0.0000
vt 0.2735 0.4718 0.0000
vt 0.2735 0.5481 0.0000
vt 0.2735 0.6399 0.0000
vt 0.1317 0.6399 0.0000
vt 0.1317 0.5481 0.0000
vt 0.1317 0.6654 0.0000
vt 0.0166 0.5481 0.0000
vt 0.8070 0.4976 0.0000
vt 0.8070 0.4338 0.0000
vt 0.8520 0.4338 0.0000
vt 0.8070 0.5921 0.0000
vt 0.8520 0.5921 0.0000
vt 0.7140 0.6794 0.0000
vt 0.7173 0.7920 0.0000
vt 0.0159 0.3523 0.0000
vt 0.0122 0.4701 0.0000
vt 0.6607 0.3142 0.0000
vt 0.7157 0.3142 0.0000
vt 0.7140 0.3436 0.0000
vt 0.6606 0.3445 0.0000
vt 0.8614 0.8102 0.0000
vt 0.8614 0.8892 0.0000
vt 0.8030 0.8890 0.0000
vt 0.8030 0.8102 0.0000
vt 0.9958 0.9621 0.0000
vt 0.9477 0.9623 0.0000
vt 0.9477 0.8892 0.0000
vt 0.9944 0.8891 0.0000
vt 0.5195 0.2266 0.0000
vt 0.5087 0.1451 0.0000
vt 0.5872 0.1451 0.0000
vt 0.5872 0.2266 0.0000
vt 0.5195 0.0288 0.0000
vt 0.5872 0.0288 0.0000
vt 0.0275 0.2488 0.0000
vt 0.0275 0.2086 0.0000
vt 0.0275 0.2978 0.0000
vt 0.0275 0.3428 0.0000
vt 0.7157 0.6399 0.0000
vt 0.7157 0.6654 0.0000
vt 0.2735 0.6654 0.0000
vt 0.7157 0.4718 0.0000
vt 0.7157 0.5481 0.0000
vt 0.7157 0.3523 0.0000
vt 0.8520 0.8027 0.0000
vt 0.8070 0.8027 0.0000
vt 0.0123 0.7940 0.0000
vt 0.0123 0.6794 0.0000
vt 0.0123 0.8763 0.0000
vt 0.0123 0.9643 0.0000
vt 0.0275 0.1558 0.0000
vt 0.9415 0.4338 0.0000
vt 0.9415 0.5921 0.0000
vt 0.9011 0.5921 0.0000
vt 0.9011 0.4338 0.0000
vt 0.5956 0.3436 0.0000
vt 0.5937 0.3142 0.0000
vt 0.9477 0.8102 0.0000
vt 0.9002 0.8893 0.0000
vt 0.9003 0.8102 0.0000
vt 0.8614 0.9623 0.0000
vt 0.9003 0.9623 0.0000
vt 0.7216 0.1452 0.0000
vt 0.7216 0.2266 0.0000
vt 0.6610 0.2266 0.0000
vt 0.6610 0.1452 0.0000
vt 0.6610 0.0288 0.0000
vt 0.7216 0.0288 0.0000
vt 0.9415 0.8027 0.0000
vt 0.9011 0.8027 0.0000
vt 0.9944 0.8102 0.0000
vt 0.8019 0.9621 0.0000
vt 0.8011 0.2266 0.0000
vt 0.7801 0.3142 0.0000
vt 0.5469 0.3388 0.0000
vt 0.5409 0.3142 0.0000
vt 0.8121 0.1452 0.0000
vt 0.8011 0.0288 0.0000
vt 0.9943 0.5921 0.0000
vt 0.9943 0.8027 0.0000
vt 0.9943 0.4338 0.0000
vt 0.9943 0.4976 0.0000
vt 0.4582 0.9887 0.0000
vt 0.0123 0.9887 0.0000
vt 0.7742 0.3388 0.0000
# 118 texture coords

g van
usemtl van_mat
s 4
f 1/1/1 2/2/2 3/3/3 4/4/4 
f 2/5/2 5/6/5 6/7/6 3/8/3 
s 16
f 7/9/7 8/10/8 9/11/9 10/12/9 
s 4
f 4/4/4 3/3/3 11/13/10 12/14/11 
f 3/8/3 6/7/6 13/15/12 11/16/10 
s off
f 14/17/13 15/18/13 16/19/13 17/20/13 
f 16/19/14 15/18/14 5/21/14 2/22/14 
s 16
f 15/18/15 14/17/16 8/10/8 7/9/7 
s 4
f 18/23/17 19/24/18 20/25/19 21/26/20 
f 21/27/20 20/28/19 22/29/21 23/30/22 
s 16
f 24/31/23 25/32/24 26/33/24 27/34/25 
s 4
f 19/24/18 12/14/11 11/13/10 20/25/19 
f 20/28/19 11/16/10 13/15/12 22/29/21 
s off
f 28/35/26 29/36/26 30/37/26 31/38/26 
f 30/37/27 21/39/27 23/40/27 31/38/27 
s 16
f 31/38/28 24/31/23 27/34/25 28/35/28 
s off
f 25/41/29 32/42/29 33/43/29 26/44/29 
f 26/44/30 33/43/30 34/45/30 
s 16
f 7/9/7 10/12/9 35/46/31 36/47/32 
f 32/48/33 25/32/24 24/31/23 37/49/34 
f 15/18/15 7/9/7 36/47/32 5/21/35 
f 24/31/23 31/38/28 23/40/36 37/49/34 
s off
f 38/50/37 39/51/37 40/52/37 41/53/37 
f 42/54/38 43/55/38 36/56/38 35/57/38 
f 23/58/39 22/59/39 44/60/39 37/61/39 
f 45/62/40 46/63/40 47/64/40 48/65/40 
f 46/63/40 49/66/40 50/67/40 47/64/40 
f 4/4/41 12/14/41 41/68/41 40/69/41 
f 12/14/42 19/24/42 51/70/42 41/68/42 
f 19/24/43 18/23/43 52/71/43 51/70/43 
f 29/36/44 53/72/44 52/73/44 18/74/44 
f 28/35/45 27/34/45 46/75/45 45/76/45 
f 27/34/46 26/33/46 49/77/46 46/75/46 
f 26/44/47 34/45/47 50/78/47 49/79/47 
f 9/11/9 8/10/9 54/80/9 55/81/9 
f 8/10/16 14/17/16 56/82/16 54/80/16 
f 17/20/48 57/83/48 56/82/48 14/17/48 
f 1/1/1 4/4/1 40/69/1 58/84/1 
f 42/85/30 59/86/30 60/87/30 61/88/30 
f 51/89/49 62/90/49 38/50/49 41/53/49 
f 33/91/50 44/60/50 63/92/50 61/93/50 
f 6/94/51 43/55/51 63/92/51 13/95/51 
f 64/96/40 65/97/40 66/98/40 67/99/40 
f 68/100/40 69/101/40 64/96/40 67/99/40 
f 59/86/47 69/102/47 68/103/47 60/87/47 
f 61/93/52 63/92/52 43/55/52 42/54/52 
f 32/104/53 37/61/53 44/60/53 33/91/53 
f 5/105/54 36/56/54 43/55/54 6/94/54 
f 22/59/55 13/95/55 63/92/55 44/60/55 
f 33/43/29 61/88/29 60/87/29 34/45/29 
f 65/97/56 56/106/56 57/107/56 39/51/56 
f 67/99/40 66/98/40 48/65/40 47/64/40 
f 68/100/40 67/99/40 47/64/40 50/67/40 
f 34/45/47 60/87/47 68/103/47 50/78/47 
f 52/108/57 53/109/57 62/90/57 51/89/57 
f 54/110/40 56/106/40 65/97/40 64/96/40 
f 69/101/40 55/111/40 54/110/40 64/96/40 
f 9/112/47 55/113/47 69/102/47 59/86/47 
f 42/85/30 35/114/30 10/115/30 9/112/30 
f 42/85/30 9/112/30 59/86/30 
f 2/22/58 1/116/58 17/20/58 16/19/58 
f 18/74/44 21/39/44 30/37/44 29/36/44 
f 66/98/56 65/97/56 39/51/56 38/50/56 
f 28/35/59 45/76/59 53/72/59 29/36/59 
f 1/116/60 58/117/60 57/83/60 17/20/60 
f 62/90/56 48/65/56 66/98/56 38/50/56 
f 58/118/61 40/52/61 39/51/61 57/107/61 
f 53/109/56 45/62/56 48/65/56 62/90/56 
# 66 polygons - 2 triangles

