# 3ds Max Wavefront OBJ Exporter v0.97b - (c)2007 guruware
# File Created: 11.09.2020 16:47:00

mtllib truck.mtl

#
# object truck_bed
#

v  -46.0406 -13.2920 -5.5977
v  -46.0406 13.2920 -5.5977
v  -14.3042 13.2920 -5.5977
v  -14.3042 -13.2920 -5.5977
v  -45.0711 -12.5202 -3.8233
v  -15.2737 -12.5202 -3.8233
v  -15.2737 12.5202 -3.8233
v  -45.0711 12.5202 -3.8233
v  -14.3042 -13.4897 1.1215
v  -46.0406 -13.4897 1.1215
v  -14.3042 13.4897 1.1215
v  -46.0406 13.4897 1.1215
v  -15.2737 -12.5202 1.1215
v  -45.0711 -12.5202 1.1215
v  -15.2737 12.5202 1.1215
v  -45.0711 12.5202 1.1215
# 16 vertices

vn 0.0000 0.0000 -1.0000
vn 0.0000 0.0000 1.0000
vn 0.0000 -0.9996 -0.0294
vn 1.0000 0.0000 0.0000
vn 0.0000 0.9996 -0.0294
vn -1.0000 0.0000 0.0000
vn 0.0000 1.0000 0.0000
vn 0.0000 -1.0000 0.0000
# 8 vertex normals

vt 0.3977 0.0216 0.0000
vt 0.3977 0.3775 0.0000
vt 0.0411 0.3775 0.0000
vt 0.0411 0.0216 0.0000
vt 0.5261 0.4003 0.0000
vt 0.5261 0.7650 0.0000
vt 0.0424 0.7650 0.0000
vt 0.0424 0.4003 0.0000
vt 0.0424 0.7822 0.0000
vt 0.4837 0.7822 0.0000
vt 0.4837 0.9694 0.0000
vt 0.0424 0.9694 0.0000
vt 0.5180 0.7822 0.0000
vt 0.9592 0.7822 0.0000
vt 0.9592 0.9694 0.0000
vt 0.5180 0.9694 0.0000
vt 0.5841 0.3984 0.0000
vt 0.9419 0.3984 0.0000
vt 0.9310 0.4113 0.0000
vt 0.5950 0.4113 0.0000
vt 0.9419 0.7562 0.0000
vt 0.9310 0.7433 0.0000
vt 0.5841 0.7562 0.0000
vt 0.5950 0.7433 0.0000
vt 0.0424 0.5866 0.0000
vt 0.5271 0.5866 0.0000
vt 0.5271 0.4005 0.0000
vt 0.0424 0.4005 0.0000
# 28 texture coords

g truck_bed
usemtl truckBed_mat
s 2
f 1/1/1 2/2/1 3/3/1 4/4/1 
s 4
f 5/5/2 6/6/2 7/7/2 8/8/2 
s 8
f 1/9/3 4/10/3 9/11/3 10/12/3 
s 16
f 4/9/4 3/10/4 11/11/4 9/12/4 
s 32
f 3/9/5 2/10/5 12/11/5 11/12/5 
s 64
f 2/13/6 1/14/6 10/15/6 12/16/6 
s off
f 10/17/2 9/18/2 13/19/2 14/20/2 
f 9/18/2 11/21/2 15/22/2 13/19/2 
f 11/21/2 12/23/2 16/24/2 15/22/2 
f 12/23/2 10/17/2 14/20/2 16/24/2 
f 14/9/7 13/10/7 6/11/7 5/12/7 
f 13/25/6 15/26/6 7/27/6 6/28/6 
f 15/9/8 16/10/8 8/11/8 7/12/8 
f 16/25/4 14/26/4 5/27/4 8/28/4 
# 14 polygons

#
# object truck
#

v  -14.0606 -10.3825 9.5917
v  -2.8914 -10.3825 9.5917
v  -2.8914 -4.9760 9.9375
v  -14.0606 -4.9760 9.9375
v  5.3308 -12.7942 1.0892
v  8.6892 -5.6539 1.0892
v  -2.7342 -13.7869 -6.0557
v  -14.0115 -13.7869 -6.0557
v  -14.0115 -12.7942 -12.1285
v  -2.7342 -12.7942 -12.1285
v  -2.8914 -0.1771 10.0035
v  -14.0606 -0.1771 10.0035
v  9.5156 -0.2125 1.0892
v  -14.0115 -12.7942 1.0892
v  -2.7342 -12.7942 1.0892
v  -2.8572 -10.9068 7.8391
v  -14.0499 -10.9068 7.8391
v  -14.0606 10.0436 9.5917
v  -14.0606 5.6708 9.9375
v  -2.8914 5.6708 9.9375
v  -2.8914 10.0436 9.5917
v  8.7134 6.4184 1.0892
v  5.3308 12.5014 1.0892
v  -2.7342 13.4788 -6.0557
v  -2.7342 12.5014 -12.1285
v  -14.0115 12.5014 -12.1285
v  -14.0115 13.4788 -6.0557
v  -14.0115 12.5014 1.0892
v  -14.0499 10.5779 7.8391
v  -2.8572 10.5779 7.8391
v  -2.7342 12.5014 1.0892
v  5.4032 12.5014 -12.1285
v  8.7254 6.4184 -12.1285
v  -14.0115 6.4184 -12.1285
v  5.4032 -12.7942 -12.1285
v  6.5199 -13.7869 -6.2077
v  6.5199 13.4788 -6.2077
v  8.7253 -5.6539 -12.1285
v  9.8420 -6.0906 -6.2077
v  9.8420 6.9220 -6.2077
v  -45.7937 13.4788 -6.0557
v  -45.7937 12.5014 -12.1285
v  -45.7937 6.4184 -12.1285
v  -45.7937 6.4184 -6.0557
v  -45.7937 -13.7869 -6.0557
v  -45.7937 -12.7942 -12.1285
v  -14.0115 -5.6539 -12.1285
v  -14.0115 -0.2125 -12.1285
v  9.5518 -0.2125 -12.1285
v  10.6685 -0.2254 -6.2077
v  -45.7937 -0.2125 -12.1285
v  -45.7937 -5.6539 -12.1285
v  -45.7937 -5.6539 -6.0557
v  -45.7937 -0.2125 -6.0557
v  -14.0115 0.0173 -6.0557
v  -14.0499 -0.0418 7.8390
v  -14.0115 0.0332 1.0892
# 57 vertices

vn -0.0000 -0.0828 0.9966
vn 0.4114 -0.1202 0.9035
vn 0.3686 -0.0512 0.9282
vn -0.0000 -0.0504 0.9987
vn 0.7144 -0.3398 0.6117
vn 0.7064 -0.1805 0.6844
vn 0.0002 -1.0000 -0.0089
vn -0.0000 -1.0000 -0.0093
vn -0.0000 -0.9922 -0.1248
vn 0.3629 -0.0015 0.9318
vn -0.0000 -0.0016 1.0000
vn 0.6934 -0.0098 0.7205
vn 0.0000 -0.9776 0.2103
vn 0.0033 -0.9770 0.2133
vn 0.0006 -0.9944 0.1058
vn -0.0000 -0.9943 0.1063
vn 0.0000 0.1022 0.9948
vn 0.0000 0.0585 0.9983
vn 0.3674 0.0582 0.9282
vn 0.4088 0.1375 0.9022
vn 0.7023 0.1920 0.6855
vn 0.6923 0.3893 0.6075
vn -0.0000 1.0000 -0.0090
vn 0.0000 0.9924 -0.1229
vn 0.0000 1.0000 -0.0092
vn 0.0000 0.9768 0.2142
vn 0.0033 0.9761 0.2172
vn 0.0000 0.9945 0.1047
vn -0.0000 -0.0000 -1.0000
vn -0.0000 0.0000 -1.0000
vn -0.0015 -0.9920 -0.1263
vn -0.0008 -0.9999 -0.0121
vn -0.0015 0.9922 -0.1244
vn -0.0003 0.9999 -0.0124
vn -0.0000 -0.9946 0.1041
vn 0.0011 0.9946 0.1037
vn 0.8977 -0.4066 -0.1695
vn 0.8720 0.4678 0.1443
vn -1.0000 0.0000 0.0000
vn -0.0000 0.9924 -0.1229
vn 0.0000 -0.0000 -1.0000
vn 0.9818 0.1191 -0.1479
vn 0.9816 -0.1451 0.1241
vn 0.9784 -0.1447 -0.1478
vn 0.8698 0.4624 -0.1721
vn 0.9007 -0.4101 0.1434
vn 0.9854 0.1178 0.1229
vn 0.0000 -0.9745 0.2243
vn -0.0000 0.9736 0.2284
vn 0.0000 0.0000 1.0000
vn -1.0000 0.0001 -0.0042
vn -1.0000 0.0001 -0.0038
vn -1.0000 0.0000 -0.0044
vn -1.0000 -0.0000 -0.0000
vn -1.0000 -0.0001 -0.0042
vn -1.0000 -0.0001 -0.0038
vn -1.0000 0.0000 -0.0000
# 57 vertex normals

vt 0.1701 0.1558 0.0000
vt 0.2146 0.1558 0.0000
vt 0.2146 0.2086 0.0000
vt 0.1701 0.2086 0.0000
vt 0.2325 0.3423 0.0000
vt 0.2325 0.1180 0.0000
vt 0.3049 0.1180 0.0000
vt 0.3049 0.3423 0.0000
vt 0.6003 0.7940 0.0000
vt 0.4582 0.7940 0.0000
vt 0.4582 0.6794 0.0000
vt 0.6003 0.6794 0.0000
vt 0.2146 0.2488 0.0000
vt 0.1701 0.2488 0.0000
vt 0.3643 0.1180 0.0000
vt 0.3643 0.3423 0.0000
vt 0.4582 0.8763 0.0000
vt 0.6003 0.8763 0.0000
vt 0.6003 0.9643 0.0000
vt 0.4582 0.9643 0.0000
vt 0.7150 0.8763 0.0000
vt 0.6003 0.9887 0.0000
vt 0.1701 0.3428 0.0000
vt 0.1701 0.2978 0.0000
vt 0.2146 0.2978 0.0000
vt 0.2146 0.3428 0.0000
vt 0.4908 0.3423 0.0000
vt 0.4262 0.3423 0.0000
vt 0.4262 0.1180 0.0000
vt 0.4908 0.1180 0.0000
vt 0.1317 0.4718 0.0000
vt 0.1317 0.3523 0.0000
vt 0.2735 0.3538 0.0000
vt 0.2735 0.4718 0.0000
vt 0.2735 0.5481 0.0000
vt 0.2735 0.6399 0.0000
vt 0.1317 0.6399 0.0000
vt 0.1317 0.5481 0.0000
vt 0.1317 0.6654 0.0000
vt 0.0166 0.5481 0.0000
vt 0.8070 0.4976 0.0000
vt 0.8070 0.4338 0.0000
vt 0.8520 0.4338 0.0000
vt 0.8070 0.5921 0.0000
vt 0.8520 0.5921 0.0000
vt 0.7153 0.6794 0.0000
vt 0.7187 0.7920 0.0000
vt 0.0159 0.3523 0.0000
vt 0.0122 0.4701 0.0000
vt 0.8614 0.8104 0.0000
vt 0.8614 0.8892 0.0000
vt 0.8030 0.8890 0.0000
vt 0.8030 0.8104 0.0000
vt 0.9945 0.9621 0.0000
vt 0.9477 0.9623 0.0000
vt 0.9477 0.8892 0.0000
vt 0.9945 0.8891 0.0000
vt 0.5087 0.1451 0.0000
vt 0.5195 0.0288 0.0000
vt 0.5872 0.0288 0.0000
vt 0.5872 0.1451 0.0000
vt 0.7157 0.3523 0.0000
vt 0.7157 0.4718 0.0000
vt 0.8520 0.8027 0.0000
vt 0.8070 0.8027 0.0000
vt 0.0136 0.7940 0.0000
vt 0.0136 0.6794 0.0000
vt 0.9415 0.4338 0.0000
vt 0.9415 0.5921 0.0000
vt 0.9011 0.5921 0.0000
vt 0.9011 0.4338 0.0000
vt 0.9477 0.8104 0.0000
vt 0.9002 0.8893 0.0000
vt 0.9003 0.8104 0.0000
vt 0.8614 0.9623 0.0000
vt 0.9003 0.9623 0.0000
vt 0.6610 0.0288 0.0000
vt 0.7216 0.0288 0.0000
vt 0.7216 0.1452 0.0000
vt 0.6610 0.1452 0.0000
vt 0.9415 0.8027 0.0000
vt 0.9011 0.8027 0.0000
vt 0.9945 0.8104 0.0000
vt 0.8017 0.9621 0.0000
vt 0.8011 0.0288 0.0000
vt 0.8121 0.1452 0.0000
vt 0.9943 0.5921 0.0000
vt 0.9943 0.8027 0.0000
vt 0.9943 0.4338 0.0000
vt 0.9943 0.4976 0.0000
vt 0.4582 0.9887 0.0000
vt 0.2735 0.6654 0.0000
vt 0.3662 0.3524 0.0000
vt 0.4283 0.3524 0.0000
vt 0.4283 0.4680 0.0000
vt 0.3026 0.3524 0.0000
vt 0.3026 0.4680 0.0000
vt 0.7953 0.3238 0.0000
vt 0.7889 0.3420 0.0000
vt 0.7222 0.3420 0.0000
vt 0.6617 0.3238 0.0000
vt 0.6617 0.3420 0.0000
vt 0.5304 0.3238 0.0000
vt 0.5067 0.2464 0.0000
vt 0.6617 0.2464 0.0000
vt 0.4936 0.1580 0.0000
vt 0.6617 0.1580 0.0000
vt 0.5909 0.3420 0.0000
vt 0.5370 0.3420 0.0000
vt 0.8186 0.2464 0.0000
vt 0.8305 0.1580 0.0000
# 111 texture coords

g truck
usemtl truck_mat
s 4
f 17/29/9 18/30/10 19/31/11 20/32/12 
f 18/33/10 21/34/13 22/35/14 19/36/11 
s 16
f 23/37/15 24/38/16 25/39/17 26/40/17 
s 4
f 20/32/12 19/31/11 27/41/18 28/42/19 
f 19/36/11 22/35/14 29/43/20 27/44/18 
s off
f 30/45/21 31/46/21 32/47/21 33/48/21 
f 32/47/22 31/46/22 21/49/22 18/50/22 
s 16
f 31/46/23 30/45/24 24/38/16 23/37/15 
s 4
f 34/51/25 35/52/26 36/53/27 37/54/28 
f 37/55/28 36/56/27 38/57/29 39/58/30 
s 16
f 40/59/31 41/60/32 42/61/32 43/62/33 
s 4
f 35/52/26 28/42/19 27/41/18 36/53/27 
f 36/56/27 27/44/18 29/43/20 38/57/29 
s off
f 44/63/34 45/64/34 46/65/34 47/66/34 
f 46/65/35 37/67/35 39/68/35 47/66/35 
s 16
f 47/66/36 40/59/31 43/62/33 44/63/36 
s off
f 41/69/37 48/70/37 49/71/37 42/72/37 
f 42/72/38 49/71/38 50/73/38 
s 16
f 23/37/15 26/40/17 51/74/39 52/75/40 
f 48/76/41 41/60/32 40/59/31 53/77/42 
f 31/46/23 23/37/15 52/75/40 21/49/43 
f 40/59/31 47/66/36 39/68/44 53/77/42 
s off
f 54/78/45 55/79/45 52/80/45 51/81/45 
f 39/82/46 38/83/46 56/84/46 53/85/46 
f 57/86/47 58/87/47 59/88/47 60/89/47 
f 43/62/48 42/61/48 58/90/48 57/91/48 
f 42/72/49 50/73/49 59/92/49 58/93/49 
f 25/39/17 24/38/17 61/94/17 62/95/17 
f 54/96/38 63/97/38 64/98/38 65/99/38 
f 49/100/50 56/84/50 66/101/50 65/102/50 
f 22/103/51 55/79/51 66/101/51 29/104/51 
f 67/105/47 68/106/47 69/107/47 70/108/47 
f 63/97/49 68/109/49 67/110/49 64/98/49 
f 65/102/52 66/101/52 55/79/52 54/78/52 
f 48/111/53 53/85/53 56/84/53 49/100/53 
f 21/112/54 52/80/54 55/79/54 22/103/54 
f 38/83/55 29/104/55 66/101/55 56/84/55 
f 49/71/37 65/99/37 64/98/37 50/73/37 
f 67/105/47 70/108/47 60/89/47 59/88/47 
f 50/73/49 64/98/49 67/110/49 59/92/49 
f 68/106/47 62/113/47 61/114/47 69/107/47 
f 25/115/49 62/116/49 68/109/49 63/97/49 
f 54/96/38 51/117/38 26/118/38 25/115/38 
f 54/96/38 25/115/38 63/97/38 
f 18/50/56 17/119/56 33/48/56 32/47/56 
f 34/120/57 37/67/57 46/65/57 45/64/57 
s 1
f 71/121/58 43/122/58 57/123/58 24/124/58 
f 61/125/58 24/124/58 57/123/58 
s off
f 33/126/59 17/127/59 20/128/59 72/129/59 
f 28/130/60 72/129/60 20/128/60 
f 45/131/61 44/132/61 73/133/61 72/129/61 
f 44/132/62 43/134/62 71/135/62 73/133/62 
f 35/136/63 34/137/63 45/131/63 72/129/63 
f 28/130/64 35/136/64 72/129/64 
f 73/133/61 30/138/61 33/126/61 72/129/61 
f 71/135/65 24/139/65 30/138/65 73/133/65 
# 51 polygons - 5 triangles

